<svg xmlns="http://www.w3.org/2000/svg" width="24" height="24" viewBox="0 0 24 24" shape-rendering="crispEdges">

<rect x="0" y="0" width="24" height="24" fill="#0a0f0a"/>
<rect x="1" y="1" width="22" height="22" fill="#21301b"/>
<rect x="2" y="2" width="20" height="20" fill="#171e12"/>
<rect x="2" y="2" width="20" height="1" fill="#305026"/>
<rect x="2" y="21" width="20" height="1" fill="#0f140f"/>
<rect x="2" y="2" width="1" height="20" fill="#3f5e33"/>
<rect x="21" y="2" width="1" height="20" fill="#0f140f"/>
<rect x="3" y="3" width="18" height="18" fill="#171e12"/>
<rect x="3" y="3" width="18" height="1" fill="#ffd06e" opacity="0.25"/>
<rect x="3" y="20" width="18" height="1" fill="#000" opacity="0.25"/>

<rect x="8" y="7" width="8" height="10" fill="#8c5f2d"/>
<rect x="7" y="8" width="10" height="2" fill="#c48a49"/>
<rect x="9" y="6" width="6" height="2" fill="#f0d49a"/>
<rect x="10" y="10" width="4" height="4" fill="#ffe88f"/>
<rect x="4" y="13" width="3" height="2" fill="#ffd06e"/>
<rect x="17" y="12" width="2" height="2" fill="#ffd06e"/>
<rect x="6" y="5" width="2" height="2" fill="#8ef4ff"/>
<rect x="16" y="5" width="2" height="2" fill="#8ef4ff"/>

  </svg>
