<svg xmlns="http://www.w3.org/2000/svg" width="24" height="24" viewBox="0 0 24 24" shape-rendering="crispEdges">

<rect x="0" y="0" width="24" height="24" fill="#0a0f0a"/>
<rect x="1" y="1" width="22" height="22" fill="#21301b"/>
<rect x="2" y="2" width="20" height="20" fill="#102316"/>
<rect x="2" y="2" width="20" height="1" fill="#305026"/>
<rect x="2" y="21" width="20" height="1" fill="#0f140f"/>
<rect x="2" y="2" width="1" height="20" fill="#3f5e33"/>
<rect x="21" y="2" width="1" height="20" fill="#0f140f"/>
<rect x="3" y="3" width="18" height="18" fill="#102316"/>
<rect x="3" y="3" width="18" height="1" fill="#81cf73" opacity="0.25"/>
<rect x="3" y="20" width="18" height="1" fill="#000" opacity="0.25"/>

<rect x="6" y="12" width="11" height="5" fill="#a96d2c"/>
<rect x="7" y="10" width="9" height="4" fill="#c8893f"/>
<rect x="8" y="8" width="7" height="3" fill="#e4b65a"/>
<rect x="9" y="7" width="5" height="2" fill="#fff1aa"/>
<rect x="10" y="6" width="3" height="1" fill="#fff"/>
<rect x="5" y="15" width="13" height="2" fill="#7f4f22"/>
<rect x="16" y="8" width="2" height="2" fill="#a7ffcf"/>
<rect x="3" y="6" width="2" height="2" fill="#ffd06e"/>
<rect x="18" y="15" width="2" height="2" fill="#fff4b2"/>

  </svg>
