<svg xmlns="http://www.w3.org/2000/svg" width="24" height="24" viewBox="0 0 24 24" shape-rendering="crispEdges">

<rect x="0" y="0" width="24" height="24" fill="#0a0f0a"/>
<rect x="1" y="1" width="22" height="22" fill="#21301b"/>
<rect x="2" y="2" width="20" height="20" fill="#112312"/>
<rect x="2" y="2" width="20" height="1" fill="#305026"/>
<rect x="2" y="21" width="20" height="1" fill="#0f140f"/>
<rect x="2" y="2" width="1" height="20" fill="#3f5e33"/>
<rect x="21" y="2" width="1" height="20" fill="#0f140f"/>
<rect x="3" y="3" width="18" height="18" fill="#112312"/>
<rect x="3" y="3" width="18" height="1" fill="#8cc668" opacity="0.25"/>
<rect x="3" y="20" width="18" height="1" fill="#000" opacity="0.25"/>

<rect x="5" y="15" width="3" height="5" fill="#6c4529"/>
<rect x="8" y="8" width="2" height="10" fill="#8a5d35"/>
<rect x="10" y="6" width="2" height="8" fill="#b7c2c8"/>
<rect x="12" y="5" width="3" height="2" fill="#e7f1f8"/>
<rect x="13" y="7" width="2" height="6" fill="#9da7ad"/>
<rect x="12" y="12" width="4" height="2" fill="#e7f1f8"/>
<rect x="16" y="13" width="2" height="5" fill="#6c4529"/>
<rect x="14" y="13" width="2" height="2" fill="#a46b3d"/>
<rect x="6" y="12" width="3" height="2" fill="#d9e6cf" opacity="0.65"/>
<rect x="4" y="4" width="2" height="2" fill="#a7e38c"/>
<rect x="17" y="4" width="2" height="2" fill="#a7e38c"/>

  </svg>
