<svg xmlns="http://www.w3.org/2000/svg" width="24" height="24" viewBox="0 0 24 24" shape-rendering="crispEdges">

<rect x="0" y="0" width="24" height="24" fill="#0a0f0a"/>
<rect x="1" y="1" width="22" height="22" fill="#21301b"/>
<rect x="2" y="2" width="20" height="20" fill="#151f12"/>
<rect x="2" y="2" width="20" height="1" fill="#305026"/>
<rect x="2" y="21" width="20" height="1" fill="#0f140f"/>
<rect x="2" y="2" width="1" height="20" fill="#3f5e33"/>
<rect x="21" y="2" width="1" height="20" fill="#0f140f"/>
<rect x="3" y="3" width="18" height="18" fill="#151f12"/>
<rect x="3" y="3" width="18" height="1" fill="#d9b15e" opacity="0.25"/>
<rect x="3" y="20" width="18" height="1" fill="#000" opacity="0.25"/>

<rect x="6" y="10" width="12" height="7" fill="#7d5330"/>
<rect x="7" y="8" width="10" height="3" fill="#a26c3f"/>
<rect x="7" y="9" width="10" height="1" fill="#f0cf8a"/>
<rect x="9" y="12" width="6" height="3" fill="#d6b25d"/>
<rect x="11" y="11" width="2" height="5" fill="#f8e6b0"/>
<rect x="4" y="6" width="2" height="2" fill="#ffd06e"/>
<rect x="18" y="6" width="2" height="2" fill="#ffd06e"/>
<rect x="5" y="18" width="2" height="2" fill="#8ef4ff"/>
<rect x="17" y="18" width="2" height="2" fill="#8ef4ff"/>

  </svg>
