<svg xmlns="http://www.w3.org/2000/svg" width="24" height="24" viewBox="0 0 24 24" shape-rendering="crispEdges">

<rect x="0" y="0" width="24" height="24" fill="#0a0f0a"/>
<rect x="1" y="1" width="22" height="22" fill="#21301b"/>
<rect x="2" y="2" width="20" height="20" fill="#121c24"/>
<rect x="2" y="2" width="20" height="1" fill="#305026"/>
<rect x="2" y="21" width="20" height="1" fill="#0f140f"/>
<rect x="2" y="2" width="1" height="20" fill="#3f5e33"/>
<rect x="21" y="2" width="1" height="20" fill="#0f140f"/>
<rect x="3" y="3" width="18" height="18" fill="#121c24"/>
<rect x="3" y="3" width="18" height="1" fill="#89c18b" opacity="0.25"/>
<rect x="3" y="20" width="18" height="1" fill="#000" opacity="0.25"/>

<rect x="8" y="6" width="8" height="2" fill="#d9ffd0"/>
<rect x="7" y="7" width="2" height="6" fill="#d9ffd0"/>
<rect x="7" y="13" width="2" height="2" fill="#78ff9a"/>
<rect x="9" y="15" width="6" height="2" fill="#78ff9a"/>
<rect x="15" y="14" width="2" height="3" fill="#78ff9a"/>
<rect x="14" y="11" width="2" height="2" fill="#78ff9a"/>
<rect x="10" y="10" width="4" height="4" fill="#5cff88"/>
<rect x="11" y="11" width="2" height="2" fill="#e6ffe9"/>
<rect x="4" y="4" width="2" height="2" fill="#ffd06e"/>
<rect x="17" y="17" width="2" height="2" fill="#ffd06e"/>
<rect x="18" y="6" width="2" height="2" fill="#a7ffcf"/>

  </svg>
