<svg xmlns="http://www.w3.org/2000/svg" width="24" height="24" viewBox="0 0 24 24" shape-rendering="crispEdges">

<rect x="0" y="0" width="24" height="24" fill="#0a0f0a"/>
<rect x="1" y="1" width="22" height="22" fill="#21301b"/>
<rect x="2" y="2" width="20" height="20" fill="#132423"/>
<rect x="2" y="2" width="20" height="1" fill="#305026"/>
<rect x="2" y="21" width="20" height="1" fill="#0f140f"/>
<rect x="2" y="2" width="1" height="20" fill="#3f5e33"/>
<rect x="21" y="2" width="1" height="20" fill="#0f140f"/>
<rect x="3" y="3" width="18" height="18" fill="#132423"/>
<rect x="3" y="3" width="18" height="1" fill="#66dce0" opacity="0.25"/>
<rect x="3" y="20" width="18" height="1" fill="#000" opacity="0.25"/>

<rect x="6" y="14" width="10" height="3" fill="#e2f5ff"/>
<rect x="8" y="10" width="8" height="4" fill="#7aa0b7"/>
<rect x="9" y="8" width="5" height="3" fill="#c7d3e0"/>
<rect x="12" y="5" width="2" height="4" fill="#ffb84d"/>
<rect x="13" y="6" width="4" height="2" fill="#ffd96d"/>
<rect x="15" y="8" width="2" height="2" fill="#ffb84d"/>
<rect x="5" y="13" width="2" height="2" fill="#8ef4ff"/>
<rect x="17" y="13" width="2" height="2" fill="#8ef4ff"/>

  </svg>
